<mxfile host="app.diagrams.net" modified="2023-12-15T19:20:19.112Z" agent="Mozilla/5.0 (Windows NT 10.0; Win64; x64) AppleWebKit/537.36 (KHTML, like Gecko) Chrome/120.0.0.0 Safari/537.36 Edg/120.0.0.0" etag="2ymf8el4mnchC8GifXM2" version="22.1.9" type="google">
  <diagram name="Trang-1" id="U9g1iNmjJTycA5l-uThB">
    <mxGraphModel grid="1" page="1" gridSize="10" guides="1" tooltips="1" connect="1" arrows="1" fold="1" pageScale="1" pageWidth="827" pageHeight="1169" math="0" shadow="0">
      <root>
        <mxCell id="0" />
        <mxCell id="1" parent="0" />
        <mxCell id="y0mwx3r2_zh4Qb1iisCX-2" value="&lt;font style=&quot;font-size: 14px;&quot;&gt;KháchHàng&lt;/font&gt;" style="rounded=0;whiteSpace=wrap;html=1;" vertex="1" parent="1">
          <mxGeometry x="160" y="160" width="120" height="60" as="geometry" />
        </mxCell>
        <mxCell id="y0mwx3r2_zh4Qb1iisCX-3" value="&lt;font style=&quot;font-size: 14px;&quot;&gt;HệThống&lt;br&gt;BánHàng&lt;/font&gt;" style="ellipse;whiteSpace=wrap;html=1;" vertex="1" parent="1">
          <mxGeometry x="400" y="150" width="120" height="80" as="geometry" />
        </mxCell>
        <mxCell id="y0mwx3r2_zh4Qb1iisCX-4" value="&lt;font style=&quot;font-size: 14px;&quot;&gt;QuảnLý&lt;/font&gt;" style="rounded=0;whiteSpace=wrap;html=1;" vertex="1" parent="1">
          <mxGeometry x="640" y="160" width="120" height="60" as="geometry" />
        </mxCell>
        <mxCell id="y0mwx3r2_zh4Qb1iisCX-5" value="&lt;font style=&quot;font-size: 12px;&quot;&gt;TìmKiếmSP&lt;/font&gt;" style="endArrow=classic;html=1;rounded=0;curved=1;entryX=0.5;entryY=0;entryDx=0;entryDy=0;exitX=0.5;exitY=0;exitDx=0;exitDy=0;edgeStyle=orthogonalEdgeStyle;" edge="1" parent="1" source="y0mwx3r2_zh4Qb1iisCX-2" target="y0mwx3r2_zh4Qb1iisCX-3">
          <mxGeometry x="0.0244" width="50" height="50" relative="1" as="geometry">
            <mxPoint x="380" y="250" as="sourcePoint" />
            <mxPoint x="430" y="200" as="targetPoint" />
            <Array as="points">
              <mxPoint x="220" y="70" />
              <mxPoint x="460" y="70" />
            </Array>
            <mxPoint as="offset" />
          </mxGeometry>
        </mxCell>
        <mxCell id="y0mwx3r2_zh4Qb1iisCX-6" value="&lt;font style=&quot;font-size: 12px;&quot;&gt;ThôngTinSPTìmKiếm&lt;/font&gt;" style="endArrow=classic;html=1;rounded=0;curved=1;entryX=0.75;entryY=0;entryDx=0;entryDy=0;exitX=0.328;exitY=0.022;exitDx=0;exitDy=0;exitPerimeter=0;edgeStyle=orthogonalEdgeStyle;" edge="1" parent="1" source="y0mwx3r2_zh4Qb1iisCX-3" target="y0mwx3r2_zh4Qb1iisCX-2">
          <mxGeometry width="50" height="50" relative="1" as="geometry">
            <mxPoint x="380" y="250" as="sourcePoint" />
            <mxPoint x="430" y="200" as="targetPoint" />
            <Array as="points">
              <mxPoint x="439" y="100" />
              <mxPoint x="250" y="100" />
            </Array>
          </mxGeometry>
        </mxCell>
        <mxCell id="y0mwx3r2_zh4Qb1iisCX-7" value="&lt;span style=&quot;font-size: 12px;&quot;&gt;TạoTàiKhoản&lt;/span&gt;" style="endArrow=classic;html=1;rounded=0;curved=1;exitX=1;exitY=0;exitDx=0;exitDy=0;entryX=0;entryY=0;entryDx=0;entryDy=0;edgeStyle=orthogonalEdgeStyle;" edge="1" parent="1" source="y0mwx3r2_zh4Qb1iisCX-2" target="y0mwx3r2_zh4Qb1iisCX-3">
          <mxGeometry x="-0.097" width="50" height="50" relative="1" as="geometry">
            <mxPoint x="380" y="250" as="sourcePoint" />
            <mxPoint x="430" y="200" as="targetPoint" />
            <Array as="points">
              <mxPoint x="280" y="130" />
              <mxPoint x="418" y="130" />
            </Array>
            <mxPoint as="offset" />
          </mxGeometry>
        </mxCell>
        <mxCell id="y0mwx3r2_zh4Qb1iisCX-11" value="&lt;font style=&quot;font-size: 12px;&quot;&gt;ThôngTinTrangChủ&lt;/font&gt;" style="endArrow=classic;html=1;rounded=0;curved=1;exitX=0;exitY=1;exitDx=0;exitDy=0;entryX=1;entryY=1;entryDx=0;entryDy=0;edgeStyle=orthogonalEdgeStyle;" edge="1" parent="1" source="y0mwx3r2_zh4Qb1iisCX-3" target="y0mwx3r2_zh4Qb1iisCX-2">
          <mxGeometry x="-0.0041" width="50" height="50" relative="1" as="geometry">
            <mxPoint x="364" y="310" as="sourcePoint" />
            <mxPoint x="414" y="260" as="targetPoint" />
            <Array as="points">
              <mxPoint x="418" y="250" />
              <mxPoint x="280" y="250" />
            </Array>
            <mxPoint as="offset" />
          </mxGeometry>
        </mxCell>
        <mxCell id="y0mwx3r2_zh4Qb1iisCX-12" value="&lt;font style=&quot;font-size: 12px;&quot;&gt;ĐặtHàng&lt;/font&gt;" style="endArrow=classic;html=1;rounded=0;curved=1;exitX=0.75;exitY=1;exitDx=0;exitDy=0;edgeStyle=orthogonalEdgeStyle;" edge="1" parent="1" source="y0mwx3r2_zh4Qb1iisCX-2">
          <mxGeometry width="50" height="50" relative="1" as="geometry">
            <mxPoint x="380" y="250" as="sourcePoint" />
            <mxPoint x="440" y="230" as="targetPoint" />
            <Array as="points">
              <mxPoint x="250" y="280" />
              <mxPoint x="440" y="280" />
            </Array>
          </mxGeometry>
        </mxCell>
        <mxCell id="y0mwx3r2_zh4Qb1iisCX-13" value="&lt;font style=&quot;font-size: 12px;&quot;&gt;HóaĐơn + TìnhTrạngĐơn&lt;/font&gt;" style="endArrow=classic;html=1;rounded=0;curved=1;entryX=0.5;entryY=1;entryDx=0;entryDy=0;edgeStyle=orthogonalEdgeStyle;" edge="1" parent="1" target="y0mwx3r2_zh4Qb1iisCX-2">
          <mxGeometry x="-0.0473" width="50" height="50" relative="1" as="geometry">
            <mxPoint x="451" y="230" as="sourcePoint" />
            <mxPoint x="430" y="200" as="targetPoint" />
            <Array as="points">
              <mxPoint x="451" y="310" />
              <mxPoint x="220" y="310" />
            </Array>
            <mxPoint as="offset" />
          </mxGeometry>
        </mxCell>
        <mxCell id="y0mwx3r2_zh4Qb1iisCX-14" value="&lt;font style=&quot;font-size: 12px;&quot;&gt;ThốngKêDoanhThu&lt;/font&gt;" style="endArrow=classic;html=1;rounded=0;curved=1;exitX=0.573;exitY=0.007;exitDx=0;exitDy=0;entryX=0.5;entryY=0;entryDx=0;entryDy=0;edgeStyle=orthogonalEdgeStyle;exitPerimeter=0;" edge="1" parent="1" source="y0mwx3r2_zh4Qb1iisCX-3" target="y0mwx3r2_zh4Qb1iisCX-4">
          <mxGeometry width="50" height="50" relative="1" as="geometry">
            <mxPoint x="380" y="250" as="sourcePoint" />
            <mxPoint x="650" y="150" as="targetPoint" />
            <Array as="points">
              <mxPoint x="469" y="70" />
              <mxPoint x="700" y="70" />
            </Array>
          </mxGeometry>
        </mxCell>
        <mxCell id="y0mwx3r2_zh4Qb1iisCX-18" value="&lt;font style=&quot;font-size: 12px;&quot;&gt;ThêmSPMới&lt;/font&gt;" style="endArrow=classic;startArrow=classic;html=1;rounded=0;curved=1;exitX=1;exitY=0;exitDx=0;exitDy=0;entryX=0;entryY=0;entryDx=0;entryDy=0;edgeStyle=orthogonalEdgeStyle;" edge="1" parent="1" source="y0mwx3r2_zh4Qb1iisCX-3" target="y0mwx3r2_zh4Qb1iisCX-4">
          <mxGeometry x="0.0037" width="50" height="50" relative="1" as="geometry">
            <mxPoint x="510" y="250" as="sourcePoint" />
            <mxPoint x="560" y="200" as="targetPoint" />
            <Array as="points">
              <mxPoint x="502" y="130" />
              <mxPoint x="640" y="130" />
            </Array>
            <mxPoint as="offset" />
          </mxGeometry>
        </mxCell>
        <mxCell id="y0mwx3r2_zh4Qb1iisCX-19" value="&lt;font style=&quot;font-size: 12px;&quot;&gt;CậpNhậtSP&lt;/font&gt;" style="endArrow=classic;startArrow=classic;html=1;rounded=0;curved=1;entryX=0;entryY=0.5;entryDx=0;entryDy=0;exitX=1;exitY=0.5;exitDx=0;exitDy=0;edgeStyle=orthogonalEdgeStyle;" edge="1" parent="1" source="y0mwx3r2_zh4Qb1iisCX-3" target="y0mwx3r2_zh4Qb1iisCX-4">
          <mxGeometry width="50" height="50" relative="1" as="geometry">
            <mxPoint x="520" y="170" as="sourcePoint" />
            <mxPoint x="640" y="170" as="targetPoint" />
            <Array as="points">
              <mxPoint x="520" y="160" />
              <mxPoint x="640" y="160" />
            </Array>
            <mxPoint as="offset" />
          </mxGeometry>
        </mxCell>
        <mxCell id="y0mwx3r2_zh4Qb1iisCX-20" value="&lt;font style=&quot;font-size: 12px;&quot;&gt;ThốngKêSốLượngSP&lt;/font&gt;" style="endArrow=classic;html=1;rounded=0;curved=1;exitX=1;exitY=1;exitDx=0;exitDy=0;entryX=0;entryY=1;entryDx=0;entryDy=0;edgeStyle=orthogonalEdgeStyle;" edge="1" parent="1" source="y0mwx3r2_zh4Qb1iisCX-3" target="y0mwx3r2_zh4Qb1iisCX-4">
          <mxGeometry x="0.0034" width="50" height="50" relative="1" as="geometry">
            <mxPoint x="510" y="250" as="sourcePoint" />
            <mxPoint x="560" y="200" as="targetPoint" />
            <Array as="points">
              <mxPoint x="502" y="250" />
              <mxPoint x="640" y="250" />
            </Array>
            <mxPoint as="offset" />
          </mxGeometry>
        </mxCell>
        <mxCell id="y0mwx3r2_zh4Qb1iisCX-21" value="&lt;font style=&quot;font-size: 12px;&quot;&gt;ThôngKêĐơnHàng&lt;/font&gt;" style="endArrow=classic;html=1;rounded=0;curved=1;entryX=0.25;entryY=1;entryDx=0;entryDy=0;exitX=0.651;exitY=0.985;exitDx=0;exitDy=0;exitPerimeter=0;edgeStyle=orthogonalEdgeStyle;" edge="1" parent="1" source="y0mwx3r2_zh4Qb1iisCX-3" target="y0mwx3r2_zh4Qb1iisCX-4">
          <mxGeometry x="0.003" width="50" height="50" relative="1" as="geometry">
            <mxPoint x="480" y="250" as="sourcePoint" />
            <mxPoint x="620" y="310" as="targetPoint" />
            <Array as="points">
              <mxPoint x="478" y="280" />
              <mxPoint x="670" y="280" />
            </Array>
            <mxPoint as="offset" />
          </mxGeometry>
        </mxCell>
        <mxCell id="y0mwx3r2_zh4Qb1iisCX-22" value="&lt;font style=&quot;font-size: 12px;&quot;&gt;&lt;span style=&quot;color: rgb(0, 0, 0); font-family: Helvetica; font-style: normal; font-variant-ligatures: normal; font-variant-caps: normal; font-weight: 400; letter-spacing: normal; orphans: 2; text-align: center; text-indent: 0px; text-transform: none; widows: 2; word-spacing: 0px; -webkit-text-stroke-width: 0px; background-color: rgb(255, 255, 255); text-decoration-thickness: initial; text-decoration-style: initial; text-decoration-color: initial; float: none; display: inline !important;&quot;&gt;TạoĐơnHàng&lt;/span&gt;&lt;br&gt;&lt;/font&gt;" style="endArrow=classic;html=1;rounded=0;curved=1;exitX=0.5;exitY=1;exitDx=0;exitDy=0;entryX=0.5;entryY=1;entryDx=0;entryDy=0;edgeStyle=orthogonalEdgeStyle;" edge="1" parent="1">
          <mxGeometry x="0.0244" width="50" height="50" relative="1" as="geometry">
            <mxPoint x="700" y="220" as="sourcePoint" />
            <mxPoint x="460" y="230" as="targetPoint" />
            <Array as="points">
              <mxPoint x="700" y="310" />
              <mxPoint x="460" y="310" />
            </Array>
            <mxPoint as="offset" />
          </mxGeometry>
        </mxCell>
        <mxCell id="6JSaW5JQkCWTSzgDVDDX-2" value="" style="curved=1;endArrow=classic;html=1;rounded=0;edgeStyle=orthogonalEdgeStyle;exitX=0;exitY=0.75;exitDx=0;exitDy=0;entryX=0.983;entryY=0.648;entryDx=0;entryDy=0;entryPerimeter=0;" edge="1" parent="1" source="y0mwx3r2_zh4Qb1iisCX-4" target="y0mwx3r2_zh4Qb1iisCX-3">
          <mxGeometry width="50" height="50" relative="1" as="geometry">
            <mxPoint x="435" y="330" as="sourcePoint" />
            <mxPoint x="485" y="280" as="targetPoint" />
            <Array as="points">
              <mxPoint x="640" y="230" />
              <mxPoint x="518" y="230" />
            </Array>
          </mxGeometry>
        </mxCell>
        <mxCell id="6JSaW5JQkCWTSzgDVDDX-7" value="PhânQuyền" style="edgeLabel;html=1;align=center;verticalAlign=middle;resizable=0;points=[];" connectable="0" vertex="1" parent="6JSaW5JQkCWTSzgDVDDX-2">
          <mxGeometry x="-0.0523" y="1" relative="1" as="geometry">
            <mxPoint y="-11" as="offset" />
          </mxGeometry>
        </mxCell>
        <mxCell id="6JSaW5JQkCWTSzgDVDDX-12" value="" style="curved=1;endArrow=classic;html=1;rounded=0;edgeStyle=orthogonalEdgeStyle;exitX=1;exitY=0.75;exitDx=0;exitDy=0;entryX=0.003;entryY=0.588;entryDx=0;entryDy=0;entryPerimeter=0;" edge="1" parent="1" source="y0mwx3r2_zh4Qb1iisCX-2" target="y0mwx3r2_zh4Qb1iisCX-3">
          <mxGeometry width="50" height="50" relative="1" as="geometry">
            <mxPoint x="370" y="310" as="sourcePoint" />
            <mxPoint x="420" y="260" as="targetPoint" />
            <Array as="points">
              <mxPoint x="280" y="230" />
              <mxPoint x="400" y="230" />
            </Array>
          </mxGeometry>
        </mxCell>
        <mxCell id="6JSaW5JQkCWTSzgDVDDX-16" value="ĐăngXuất" style="edgeLabel;html=1;align=center;verticalAlign=middle;resizable=0;points=[];" vertex="1" connectable="0" parent="6JSaW5JQkCWTSzgDVDDX-12">
          <mxGeometry x="-0.0469" y="-1" relative="1" as="geometry">
            <mxPoint y="-11" as="offset" />
          </mxGeometry>
        </mxCell>
        <mxCell id="6JSaW5JQkCWTSzgDVDDX-14" value="" style="curved=1;endArrow=classic;html=1;rounded=0;edgeStyle=orthogonalEdgeStyle;exitX=1;exitY=0.25;exitDx=0;exitDy=0;entryX=0.003;entryY=0.417;entryDx=0;entryDy=0;entryPerimeter=0;" edge="1" parent="1" source="y0mwx3r2_zh4Qb1iisCX-2" target="y0mwx3r2_zh4Qb1iisCX-3">
          <mxGeometry width="50" height="50" relative="1" as="geometry">
            <mxPoint x="370" y="310" as="sourcePoint" />
            <mxPoint x="420" y="260" as="targetPoint" />
            <Array as="points">
              <mxPoint x="280" y="150" />
              <mxPoint x="400" y="150" />
            </Array>
          </mxGeometry>
        </mxCell>
        <mxCell id="6JSaW5JQkCWTSzgDVDDX-15" value="ĐăngNhập" style="edgeLabel;html=1;align=center;verticalAlign=middle;resizable=0;points=[];" vertex="1" connectable="0" parent="6JSaW5JQkCWTSzgDVDDX-14">
          <mxGeometry x="-0.0154" y="-2" relative="1" as="geometry">
            <mxPoint as="offset" />
          </mxGeometry>
        </mxCell>
        <mxCell id="6JSaW5JQkCWTSzgDVDDX-33" value="" style="curved=1;endArrow=classic;html=1;rounded=0;edgeStyle=orthogonalEdgeStyle;entryX=0.67;entryY=0.008;entryDx=0;entryDy=0;entryPerimeter=0;exitX=0.25;exitY=0;exitDx=0;exitDy=0;" edge="1" parent="1" source="y0mwx3r2_zh4Qb1iisCX-4" target="y0mwx3r2_zh4Qb1iisCX-3">
          <mxGeometry width="50" height="50" relative="1" as="geometry">
            <mxPoint x="560" y="120" as="sourcePoint" />
            <mxPoint x="610" y="70" as="targetPoint" />
            <Array as="points">
              <mxPoint x="670" y="100" />
              <mxPoint x="480" y="100" />
            </Array>
          </mxGeometry>
        </mxCell>
        <mxCell id="6JSaW5JQkCWTSzgDVDDX-34" value="ThêmNhânViên" style="edgeLabel;html=1;align=center;verticalAlign=middle;resizable=0;points=[];" connectable="0" vertex="1" parent="6JSaW5JQkCWTSzgDVDDX-33">
          <mxGeometry x="0.0392" y="4" relative="1" as="geometry">
            <mxPoint as="offset" />
          </mxGeometry>
        </mxCell>
      </root>
    </mxGraphModel>
  </diagram>
</mxfile>
